<svg width="610" height="541" viewBox="0 0 610 541" fill="none" xmlns="http://www.w3.org/2000/svg">
<g clip-path="url(#clip0_53_199)">
<path d="M112.527 516.357C125.892 519.347 140.448 516.007 151.335 506.061C162.381 495.962 167.025 481.473 165.049 467.694C176.175 473.181 189.984 471.67 199.701 462.79C208.528 454.721 211.615 442.728 208.777 431.908C212.605 431.425 216.333 429.819 219.399 427.014C225.552 421.389 227.214 412.705 224.239 405.41C229.401 402.499 233.383 397.755 235.311 392.05C237.28 392.564 239.335 392.872 241.469 392.872C254.834 392.872 265.673 382.019 265.673 368.638C265.673 366.788 265.445 364.996 265.053 363.262C273.663 361.301 280.086 353.608 280.086 344.404C280.086 339.787 278.471 335.556 275.781 332.232C279.377 332.009 282.94 330.742 286.001 328.367C291.667 323.966 294.092 316.942 292.911 310.331C295.225 310.23 297.529 309.44 299.498 307.913C304.555 303.985 305.477 296.69 301.548 291.627C297.624 286.564 290.343 285.641 285.281 289.57C283.078 291.287 281.659 293.641 281.087 296.17C275.241 293.991 268.448 294.781 263.158 298.89C259.022 302.103 256.618 306.72 256.073 311.545C246.865 303.55 233.013 302.898 223.015 310.659C213.267 318.235 210.381 331.357 215.295 342.13C211.255 341.886 207.109 343.042 203.656 345.724C199.648 348.836 197.403 353.359 197.027 358.051C193.95 357.982 190.863 358.485 187.914 359.583C184.197 360.002 180.548 361.412 177.377 363.872C172.78 367.44 170.064 372.54 169.386 377.889C157.297 369.317 140.575 369.216 128.269 378.785C115.36 388.811 111.537 406.179 118.045 420.44C112.691 420.122 107.205 421.649 102.63 425.201C97.5524 429.145 94.5871 434.808 93.9093 440.735C93.5122 441.074 93.1097 441.413 92.7232 441.774C91.9607 442.468 91.2353 443.189 90.5363 443.926C82.8425 442.357 74.5344 444.027 67.8413 449.228C64.6589 451.704 62.1755 454.736 60.3805 458.082C48.5723 449.748 32.8828 447.484 18.5701 453.48C16.5552 454.322 14.6383 455.298 12.8249 456.393C3.01675 462.319 0 474.451 0 485.91C0 516.335 24.6642 540.999 55.0891 540.999H107.994C113.237 533.821 114.788 524.707 112.527 516.357Z" fill="#F7EEDC"/>
<path d="M181.719 524.357C182.359 523.578 182.989 522.777 183.583 521.94C183.89 521.51 184.181 521.076 184.467 520.636C190.239 519.257 195.47 515.647 198.758 510.144C201.718 505.197 202.566 499.583 201.612 494.324C216.471 499.058 233.156 493.194 241.511 479.219C249.481 465.891 247.384 449.355 237.471 438.418C242.671 437.109 247.378 433.806 250.354 428.833C252.403 425.403 253.357 421.617 253.325 417.895C254.056 414.842 254.183 411.724 253.748 408.692C258.334 407.759 262.528 404.991 265.122 400.655C267.357 396.917 267.998 392.676 267.277 388.699C278.498 392.278 291.106 387.851 297.417 377.296C303.888 366.47 301.579 352.839 292.588 344.685C297.285 343.572 301.553 340.64 304.232 336.16C307.653 330.435 307.621 323.617 304.772 318.092C307.198 317.223 309.353 315.537 310.782 313.146C314.055 307.669 312.276 300.576 306.806 297.294C301.336 294.018 294.246 295.799 290.973 301.276C289.702 303.407 289.199 305.782 289.379 308.088C282.708 307.706 276.062 310.946 272.398 317.08C270.418 320.399 269.597 324.078 269.803 327.662C266.197 325.398 261.829 324.301 257.275 324.852C248.183 325.955 241.358 333.239 240.458 341.992C238.7 341.806 236.905 341.801 235.078 342.024C221.866 343.625 212.452 355.649 214.051 368.877C214.305 370.987 214.85 372.985 215.602 374.873C210.201 377.465 205.986 381.972 203.736 387.432C196.174 385.354 187.797 388.047 182.984 394.807C180.585 398.179 179.442 402.059 179.426 405.903C168.401 404.387 156.932 408.883 150.027 418.585C142.423 429.262 142.582 443.11 149.334 453.464C135.492 453.162 121.746 459.492 113.099 471.633C104.584 483.593 103.033 498.395 107.581 511.268C97.2559 509.767 86.4855 513.934 80.0149 523.021C76.1336 528.466 74.4497 534.802 74.7356 540.999H182.015C183.641 535.475 183.482 529.664 181.719 524.357Z" fill="#AFCED8"/>
<path d="M610 478.014C610 467.868 606.137 457.399 596.778 453.48C582.465 447.484 566.776 449.748 554.963 458.082C553.173 454.736 550.689 451.704 547.502 449.228C540.814 444.027 532.506 442.357 524.812 443.926C524.113 443.189 523.388 442.468 522.625 441.774C522.233 441.413 521.836 441.074 521.439 440.735C520.761 434.808 517.796 429.145 512.713 425.201C508.143 421.649 502.657 420.122 497.298 420.44C503.812 406.179 499.988 388.811 487.079 378.785C474.768 369.216 458.046 369.317 445.962 377.889C445.279 372.54 442.563 367.44 437.972 363.872C434.8 361.412 431.152 360.002 427.434 359.583C424.485 358.485 421.393 357.982 418.321 358.051C417.946 353.359 415.695 348.836 411.692 345.724C408.24 343.042 404.093 341.886 400.048 342.13C404.967 331.357 402.076 318.235 392.328 310.659C382.33 302.898 368.478 303.55 359.27 311.545C358.73 306.72 356.326 302.103 352.19 298.89C346.901 294.781 340.102 293.991 334.261 296.17C333.684 293.641 332.27 291.287 330.062 289.57C325.005 285.641 317.724 286.564 313.795 291.627C309.872 296.69 310.788 303.985 315.85 307.913C317.814 309.44 320.123 310.23 322.437 310.331C321.256 316.942 323.676 323.966 329.347 328.367C332.408 330.742 335.971 332.009 339.562 332.232C336.877 335.556 335.257 339.787 335.257 344.404C335.257 353.608 341.685 361.301 350.29 363.262C349.898 364.996 349.675 366.788 349.675 368.638C349.675 382.019 360.509 392.872 373.879 392.872C376.013 392.872 378.068 392.564 380.038 392.05C381.965 397.755 385.947 402.499 391.11 405.41C388.129 412.705 389.797 421.389 395.95 427.014C399.015 429.819 402.743 431.425 406.572 431.908C403.728 442.728 406.82 454.721 415.647 462.79C425.364 471.67 439.174 473.181 450.299 467.694C448.324 481.473 452.968 495.962 464.013 506.061C474.895 516.007 489.451 519.347 502.821 516.357C500.56 524.707 502.106 533.821 507.354 540.999H554.765C585.271 540.999 610 516.27 610 485.764V478.014Z" fill="#F7EEDC"/>
<path d="M530.165 523.021C523.694 513.934 512.919 509.767 502.599 511.268C507.147 498.395 505.59 483.593 497.076 471.633C488.434 459.492 474.688 453.162 460.841 453.464C467.592 443.11 467.751 429.262 460.153 418.585C453.243 408.883 441.773 404.387 430.749 405.903C430.738 402.059 429.589 398.179 427.191 394.807C422.377 388.047 414 385.354 406.444 387.432C404.194 381.972 399.979 377.465 394.578 374.873C395.324 372.985 395.87 370.987 396.129 368.877C397.728 355.649 388.314 343.625 375.102 342.024C373.275 341.801 371.475 341.806 369.722 341.992C368.817 333.239 361.997 325.955 352.905 324.852C348.351 324.301 343.977 325.398 340.371 327.662C340.583 324.078 339.763 320.399 337.782 317.08C334.113 310.946 327.467 307.706 320.801 308.088C320.975 305.782 320.478 303.407 319.207 301.276C315.929 295.799 308.844 294.018 303.374 297.294C297.904 300.576 296.12 307.669 299.398 313.146C300.822 315.537 302.977 317.223 305.408 318.092C302.559 323.617 302.522 330.435 305.948 336.16C308.622 340.64 312.89 343.572 317.592 344.685C308.595 352.839 306.292 366.47 312.763 377.296C319.074 387.851 331.677 392.278 342.903 388.699C342.177 392.676 342.818 396.917 345.058 400.655C347.647 404.991 351.846 407.759 356.432 408.692C355.992 411.724 356.119 414.842 356.85 417.895C356.823 421.617 357.777 425.403 359.826 428.833C362.802 433.806 367.504 437.109 372.709 438.418C362.796 449.355 360.699 465.891 368.669 479.219C377.019 493.194 393.709 499.058 408.568 494.324C407.609 499.583 408.462 505.197 411.422 510.144C414.71 515.647 419.941 519.257 425.713 520.636C425.999 521.076 426.29 521.51 426.592 521.94C427.191 522.777 427.815 523.578 428.461 524.357C426.693 529.664 426.534 535.475 428.16 540.999H535.444C535.73 534.802 534.041 528.466 530.165 523.021Z" fill="#AFCED8"/>
<path d="M251.805 515.504C253.627 513.42 255.067 510.944 255.941 508.124C257.773 502.212 256.788 496.094 253.743 491.228C254.066 490.56 254.373 489.881 254.654 489.181C254.797 488.821 254.929 488.46 255.062 488.1C258.938 486.117 262.041 482.634 263.439 478.143C264.688 474.103 264.328 469.952 262.734 466.368C274.145 467.174 285.032 460.102 288.575 448.693C291.953 437.814 287.6 426.383 278.646 420.308C282.125 418.468 284.91 415.303 286.171 411.242C287.044 408.437 287.071 405.58 286.404 402.929C286.398 400.628 285.948 398.38 285.112 396.291C288.22 394.833 290.735 392.135 291.837 388.593C292.784 385.54 292.509 382.406 291.307 379.697C299.927 380.307 308.146 374.968 310.825 366.348C313.568 357.51 309.565 348.195 301.749 343.938C304.905 342.326 307.441 339.5 308.58 335.842C310.031 331.166 308.823 326.31 305.842 322.869C307.42 321.825 308.664 320.255 309.273 318.304C310.661 313.83 308.167 309.08 303.698 307.691C299.234 306.301 294.489 308.799 293.102 313.268C292.557 315.012 292.615 316.788 293.139 318.4C288.321 319.285 284.143 322.747 282.586 327.752C281.744 330.461 281.797 333.223 282.565 335.741C279.605 334.755 276.301 334.729 273.15 335.911C266.854 338.276 263.248 344.648 264.116 351.042C262.835 351.217 261.548 351.524 260.288 351.996C251.143 355.426 246.51 365.627 249.936 374.783C250.481 376.246 251.217 377.577 252.075 378.791C248.676 381.574 246.452 385.513 245.785 389.797C240.039 389.627 234.533 392.994 232.271 398.651C231.138 401.466 230.995 404.429 231.647 407.176C223.529 408.003 216.127 413.193 212.881 421.31C209.301 430.238 211.811 440.077 218.409 446.296C208.491 448.475 199.781 455.367 195.719 465.52C191.711 475.524 193.162 486.345 198.626 494.732C191.012 495.448 184.049 500.288 181.004 507.885C178.648 513.77 179.14 520.074 181.804 525.312C172.542 526.086 164.049 531.865 160.242 540.999H265.673C265.43 530.46 260.018 521.113 251.805 515.504Z" fill="white"/>
<path d="M428.202 525.312C430.86 520.074 431.353 513.77 428.996 507.885C425.952 500.288 418.994 495.448 411.374 494.732C416.839 486.345 418.29 475.524 414.281 465.52C410.22 455.367 401.509 448.475 391.592 446.296C398.189 440.077 400.699 430.238 397.125 421.31C393.874 413.193 386.471 408.003 378.348 407.176C379.005 404.429 378.862 401.466 377.729 398.651C375.468 392.994 369.961 389.627 364.216 389.797C363.548 385.513 361.325 381.574 357.925 378.791C358.783 377.577 359.519 376.246 360.064 374.783C363.49 365.627 358.857 355.426 349.712 351.996C348.452 351.524 347.165 351.217 345.884 351.042C346.752 344.648 343.146 338.276 336.85 335.911C333.7 334.729 330.396 334.755 327.436 335.741C328.203 333.223 328.251 330.461 327.414 327.752C325.858 322.747 321.68 319.285 316.867 318.4C317.385 316.788 317.444 315.012 316.898 313.268C315.511 308.799 310.767 306.301 306.303 307.691C301.834 309.08 299.34 313.83 300.727 318.304C301.336 320.255 302.58 321.825 304.158 322.869C301.177 326.31 299.97 331.166 301.426 335.842C302.559 339.5 305.095 342.326 308.251 343.938C300.43 348.195 296.433 357.51 299.175 366.348C301.855 374.968 310.073 380.307 318.693 379.697C317.491 382.406 317.216 385.54 318.164 388.593C319.265 392.135 321.78 394.833 324.889 396.291C324.052 398.38 323.602 400.628 323.597 402.929C322.929 405.58 322.956 408.437 323.83 411.242C325.09 415.303 327.87 418.468 331.354 420.308C322.4 426.383 318.047 437.814 321.426 448.693C324.968 460.102 335.855 467.174 347.266 466.368C345.672 469.952 345.307 474.103 346.562 478.143C347.96 482.634 351.063 486.117 354.939 488.1C355.071 488.46 355.198 488.821 355.346 489.181C355.627 489.881 355.934 490.56 356.257 491.228C353.212 496.094 352.227 502.212 354.06 508.124C354.939 510.944 356.374 513.42 358.195 515.504C349.982 521.113 344.571 530.46 344.327 540.999H449.759C445.951 531.865 437.458 526.086 428.202 525.312Z" fill="white"/>
<path d="M293.493 215.182C259.329 225.181 262.189 259.25 263.549 268.093C263.719 260.559 265.085 248.964 271.153 240.439C276.019 233.606 283.883 228.733 296.596 229.523L294.044 217.722L293.493 215.182Z" fill="#C62B0C"/>
<path d="M316.506 215.182L315.961 217.722L313.403 229.523C326.117 228.733 333.986 233.606 338.846 240.439C344.92 248.964 346.281 260.559 346.456 268.093C347.816 259.25 350.676 225.181 316.506 215.182Z" fill="#C62B0C"/>
<path d="M269.766 175.839C269.766 175.839 254.659 185.064 246.573 206.482C255.681 192.253 272.223 171.826 286.562 183.145L286.551 183.065C284.714 174.593 277.163 171.343 269.766 175.839Z" fill="#F79E0E"/>
<path d="M286.562 183.145C272.223 171.826 255.681 192.253 246.574 206.482C241.199 220.728 238.922 240.36 246.288 266.29C248.501 274.089 251.535 282.423 255.671 291.383C261.082 291.383 264.731 284.332 263.783 275.711C263.783 275.711 263.444 272.641 263.55 268.093C262.189 259.25 259.329 225.181 293.494 215.182L293.054 213.136L286.562 183.145Z" fill="#FFDC0D"/>
<path d="M340.239 175.839C333.297 171.619 326.212 174.222 323.856 181.565C338.047 173.862 354.615 193.806 363.718 207.288C355.717 185.302 340.239 175.839 340.239 175.839Z" fill="#F79E0E"/>
<path d="M323.856 181.565C323.702 182.047 323.565 182.54 323.454 183.065L316.951 213.136L316.506 215.182C350.676 225.181 347.816 259.25 346.456 268.093C346.562 272.641 346.223 275.711 346.223 275.711C345.275 284.332 348.923 291.383 354.335 291.383C358.47 282.423 361.499 274.089 363.718 266.29C370.946 240.842 368.881 221.47 363.718 207.288C354.615 193.806 338.047 173.862 323.856 181.565Z" fill="#FFDC0D"/>
<path d="M305.529 49.9572C293.811 49.9572 283.062 53.9971 274.505 60.7142C271.99 80.0599 271.164 105.571 273.361 139.2C273.616 143.091 273.912 147.104 274.256 151.224H336.803C337.141 147.104 337.443 143.091 337.697 139.2C339.895 105.571 339.064 80.0599 336.554 60.7142C327.997 53.9971 317.242 49.9572 305.529 49.9572Z" fill="#6699CC"/>
<path d="M275.257 162.373H335.802C336.162 158.577 336.501 154.845 336.803 151.224H274.256C274.553 154.845 274.892 158.577 275.257 162.373Z" fill="#FF6633"/>
<path d="M275.511 165.061C288.924 171.709 309.384 174.074 335.474 165.734C335.59 164.594 335.691 163.492 335.802 162.373H275.257C275.342 163.269 275.421 164.154 275.511 165.061Z" fill="#C62B0C"/>
<path d="M278.868 194.156L332.079 194.994C333.429 184.703 334.552 174.97 335.473 165.734L275.511 165.061C276.427 174.243 277.534 183.924 278.868 194.156Z" fill="#E2DBD5"/>
<path d="M278.869 194.156C280.902 209.769 283.465 226.682 286.594 244.919C286.785 246.033 286.96 247.104 287.156 248.233H323.904C324.089 247.162 324.253 246.149 324.439 245.094C327.52 227.116 330.062 210.422 332.079 194.994C307.69 184.285 288.929 189.358 278.869 194.156Z" fill="#6699CC"/>
<path d="M326.562 21.7632C320.16 18.789 313.054 17.1083 305.53 17.1083C298.005 17.1083 290.894 18.789 284.492 21.7632C282.114 27.0012 279.864 33.4851 277.942 41.5488C276.613 47.1527 275.443 53.4987 274.505 60.7142C283.062 53.9971 293.811 49.9572 305.53 49.9572C317.242 49.9572 327.997 53.9971 336.554 60.7142C335.617 53.4987 334.441 47.1527 333.112 41.5488C331.195 33.4851 328.945 27.0012 326.562 21.7632Z" fill="#F79E0E"/>
<path d="M305.529 0C305.529 0 294.007 0.784641 284.492 21.7632C290.894 18.789 298.005 17.1084 305.529 17.1084C313.054 17.1084 320.16 18.789 326.562 21.7632C317.052 0.784641 305.529 0 305.529 0Z" fill="#6699CC"/>
<path d="M273.479 133.26C273.479 143.067 281.43 151.018 291.237 151.018C301.045 151.018 308.996 143.067 308.996 133.26V67.5055C308.996 57.6978 301.045 49.7471 291.237 49.7471C281.43 49.7471 273.479 57.6978 273.479 67.5055V133.26Z" fill="#8CB3D9"/>
<path d="M305.694 162.373H277.328C276.957 158.704 276.602 154.982 276.285 151.224H306.218C306.043 154.977 305.869 158.704 305.694 162.373Z" fill="#FF8C48"/>
<path d="M305.545 165.4L277.608 165.087C277.513 164.186 277.418 163.28 277.328 162.373H305.694C305.641 163.386 305.593 164.388 305.545 165.4Z" fill="#D46011"/>
<path d="M281.071 193.165C280.722 190.768 280.441 188.77 280.251 187.359C279.324 180.266 278.419 172.801 277.608 165.087L305.546 165.4C305.148 173.49 304.741 181.31 304.344 188.658C304.111 188.658 303.878 188.653 303.645 188.653C294.288 188.653 286.637 190.811 281.071 193.165Z" fill="#E9E4E0"/>
<path d="M301.05 244.193H288.935C288.935 244.193 283.438 209.393 281.071 193.165C286.636 190.811 294.288 188.653 303.644 188.653C303.877 188.653 304.11 188.658 304.343 188.658C302.612 220.839 301.05 244.193 301.05 244.193Z" fill="#8CB3D9"/>
<path d="M277.825 58.3179C278.98 51.3303 280.441 44.5496 282.263 38.0604C284.259 30.9456 286.631 24.8752 289.088 19.897C294.235 18.0944 299.763 17.1083 305.529 17.1083C306.239 17.1083 306.948 17.1242 307.653 17.1561C308.473 25.363 308.86 36.7456 308.934 50.0739C307.812 49.9996 306.673 49.9572 305.529 49.9572C295.283 49.9572 285.773 53.0481 277.825 58.3179Z" fill="#FFDC0D"/>
<path d="M289.088 19.897C294.51 8.89613 300.329 3.19158 303.385 3.18628C305.397 3.18628 306.774 8.34476 307.653 17.1561C306.948 17.1243 306.239 17.1084 305.529 17.1084C299.763 17.1084 294.235 18.0945 289.088 19.897Z" fill="#8CB3D9"/>
<path d="M305.477 171.078C302.035 171.078 296.094 173.872 296.094 177.318L302.39 285.137C302.39 288.583 303.179 291.383 305.477 291.383C308.193 291.383 308.564 288.583 308.564 285.137L314.86 177.318C314.86 173.872 308.919 171.078 305.477 171.078Z" fill="#FFDC0D"/>
<path d="M306.647 141.591C306.663 141.288 306.673 140.965 306.689 140.663C311.836 140.085 315.839 135.711 315.839 130.404C315.839 128.655 315.405 127.006 314.637 125.558C315.728 127.197 316.364 129.169 316.364 131.284C316.364 136.787 312.069 141.283 306.647 141.591Z" fill="#3679C6"/>
<path d="M306.054 141.612C302.104 141.612 298.672 139.385 296.941 136.114C298.789 138.897 301.945 140.726 305.53 140.726C305.921 140.726 306.308 140.705 306.689 140.663C306.673 140.965 306.663 141.288 306.647 141.591C306.451 141.606 306.255 141.612 306.054 141.612Z" fill="#4A9BD5"/>
<path d="M305.529 120.082C299.837 120.082 295.214 124.7 295.214 130.404C295.214 136.103 299.837 140.726 305.529 140.726C311.222 140.726 315.839 136.103 315.839 130.404C315.839 124.7 311.222 120.082 305.529 120.082Z" fill="#F2AF19"/>
<path d="M305.53 122.961C301.426 122.961 298.095 126.29 298.095 130.404C298.095 134.513 301.426 137.842 305.53 137.842C309.633 137.842 312.964 134.513 312.964 130.404C312.964 126.29 309.633 122.961 305.53 122.961Z" fill="#A1E0FF"/>
<path d="M298.095 130.42C298.095 130.415 298.095 130.409 298.095 130.404C298.095 130.409 298.095 130.415 298.095 130.42ZM305.583 122.961C305.583 122.961 305.583 122.961 305.577 122.961C305.583 122.961 305.583 122.961 305.583 122.961ZM305.556 122.961C305.556 122.961 305.556 122.961 305.551 122.961C305.556 122.961 305.556 122.961 305.556 122.961Z" fill="#9B5933"/>
<path d="M298.466 132.599C298.249 131.904 298.095 131.183 298.095 130.42C298.095 130.415 298.095 130.409 298.095 130.404C298.095 126.29 301.426 122.961 305.53 122.961C305.535 122.961 305.545 122.961 305.551 122.961C305.556 122.961 305.556 122.961 305.556 122.961C305.567 122.961 305.572 122.961 305.577 122.961C305.583 122.961 305.583 122.961 305.583 122.961C307.754 122.977 309.686 123.941 311.037 125.447C310.518 125.41 310.015 125.389 309.533 125.389C301.865 125.389 299.287 130.113 298.466 132.599Z" fill="#62C3FF"/>
<path d="M302.061 129.641C301.399 129.641 300.864 130.181 300.864 130.844C300.864 131.502 301.399 132.042 302.061 132.042C302.718 132.042 303.258 131.502 303.258 130.844C303.258 130.181 302.718 129.641 302.061 129.641Z" fill="white"/>
<path d="M307.849 110.608C307.875 109.919 307.896 109.235 307.917 108.546C319.514 107.347 328.547 97.5393 328.547 85.616C328.547 81.7723 327.61 78.146 325.947 74.9597C328.325 78.586 329.707 82.928 329.707 87.5882C329.707 99.9304 320.022 110.003 307.849 110.608Z" fill="#3679C6"/>
<path d="M306.684 110.64C297.809 110.64 290.11 105.614 286.266 98.2497C290.38 104.527 297.47 108.667 305.529 108.667C306.334 108.667 307.134 108.625 307.917 108.546C307.896 109.235 307.875 109.919 307.849 110.608C307.467 110.629 307.075 110.64 306.684 110.64Z" fill="#4A9BD5"/>
<path d="M305.53 62.5698C292.811 62.5698 282.506 72.8868 282.506 85.616C282.506 98.3505 292.811 108.667 305.53 108.667C318.243 108.667 328.548 98.3505 328.548 85.616C328.548 72.8868 318.243 62.5698 305.53 62.5698Z" fill="#F2AF19"/>
<path d="M305.53 69.0007C296.364 69.0007 288.935 76.4389 288.935 85.616C288.935 94.7931 296.364 102.226 305.53 102.226C314.69 102.226 322.119 94.7931 322.119 85.616C322.119 76.4389 314.69 69.0007 305.53 69.0007Z" fill="#A1E0FF"/>
<path d="M289.755 90.52C289.273 88.956 288.935 87.3337 288.935 85.616C288.935 76.4389 296.364 69.0007 305.53 69.0007C305.535 69.0007 305.545 69.0007 305.556 69.0007H305.561C305.572 69.0007 305.577 69.0007 305.582 69.0007C305.588 69.0007 305.588 69.0007 305.588 69.0007C305.598 69.0007 305.604 69.0007 305.614 69.0007C310.48 69.0272 314.807 71.1902 317.825 74.5568C316.66 74.4667 315.543 74.4242 314.468 74.4242C297.349 74.4242 291.593 84.9745 289.755 90.52Z" fill="#62C3FF"/>
<path d="M300.7 76.5767C298.942 76.5767 297.518 78.0028 297.518 79.763C297.518 81.5178 298.942 82.9439 300.7 82.9439C302.458 82.9439 303.883 81.5178 303.883 79.763C303.883 78.0028 302.458 76.5767 300.7 76.5767Z" fill="white"/>
<path d="M297.052 85.388C295.977 85.388 295.114 86.2575 295.114 87.3337C295.114 88.4046 295.977 89.2741 297.052 89.2741C298.121 89.2741 298.99 88.4046 298.99 87.3337C298.99 86.2575 298.121 85.388 297.052 85.388Z" fill="white"/>
<path d="M305.53 44.2845C304.735 44.2845 304.089 44.9207 304.089 45.7212C304.089 46.5165 304.735 47.1633 305.53 47.1633C306.324 47.1633 306.965 46.5165 306.965 45.7212C306.965 44.9207 306.324 44.2845 305.53 44.2845Z" fill="#CC8B96"/>
<path d="M305.529 44.5655C304.894 44.5655 304.375 45.0851 304.375 45.7212C304.375 46.3627 304.894 46.8823 305.529 46.8823C306.17 46.8823 306.684 46.3627 306.684 45.7212C306.684 45.0851 306.17 44.5655 305.529 44.5655Z" fill="#FFDC0D"/>
<path d="M313.954 45.1487C313.16 45.1487 312.519 45.7901 312.519 46.5907C312.519 47.3859 313.16 48.0327 313.954 48.0327C314.748 48.0327 315.394 47.3859 315.394 46.5907C315.394 45.7901 314.748 45.1487 313.954 45.1487Z" fill="#CC8B96"/>
<path d="M313.954 45.4349C313.319 45.4349 312.8 45.9492 312.8 46.5907C312.8 47.2322 313.319 47.7464 313.954 47.7464C314.6 47.7464 315.114 47.2322 315.114 46.5907C315.114 45.9492 314.6 45.4349 313.954 45.4349Z" fill="#FFDC0D"/>
<path d="M322.018 46.93C321.229 46.93 320.578 47.5768 320.578 48.372C320.578 49.1726 321.229 49.8141 322.018 49.8141C322.818 49.8141 323.459 49.1726 323.459 48.372C323.459 47.5768 322.818 46.93 322.018 46.93Z" fill="#CC8B96"/>
<path d="M322.019 47.211C321.383 47.211 320.864 47.7306 320.864 48.3721C320.864 49.0136 321.383 49.5278 322.019 49.5278C322.665 49.5278 323.173 49.0136 323.173 48.3721C323.173 47.7306 322.665 47.211 322.019 47.211Z" fill="#FFDC0D"/>
<path d="M329.527 50.1322C328.733 50.1322 328.087 50.779 328.087 51.5742C328.087 52.3748 328.733 53.011 329.527 53.011C330.321 53.011 330.962 52.3748 330.962 51.5742C330.962 50.779 330.321 50.1322 329.527 50.1322Z" fill="#CC8B96"/>
<path d="M329.527 50.4131C328.886 50.4131 328.367 50.9327 328.367 51.5742C328.367 52.2104 328.886 52.73 329.527 52.73C330.168 52.73 330.681 52.2104 330.681 51.5742C330.681 50.9327 330.168 50.4131 329.527 50.4131Z" fill="#FFDC0D"/>
<path d="M296.676 45.1487C295.877 45.1487 295.236 45.7901 295.236 46.5907C295.236 47.3859 295.877 48.0327 296.676 48.0327C297.465 48.0327 298.116 47.3859 298.116 46.5907C298.116 45.7901 297.465 45.1487 296.676 45.1487Z" fill="#CC8B96"/>
<path d="M296.676 45.4349C296.03 45.4349 295.517 45.9492 295.517 46.5907C295.517 47.2322 296.03 47.7464 296.676 47.7464C297.312 47.7464 297.831 47.2322 297.831 46.5907C297.831 45.9492 297.312 45.4349 296.676 45.4349Z" fill="#FFDC0D"/>
<path d="M288.612 46.93C287.812 46.93 287.171 47.5768 287.171 48.372C287.171 49.1726 287.812 49.8141 288.612 49.8141C289.401 49.8141 290.052 49.1726 290.052 48.372C290.052 47.5768 289.401 46.93 288.612 46.93Z" fill="#CC8B96"/>
<path d="M288.612 47.211C287.966 47.211 287.452 47.7306 287.452 48.3721C287.452 49.0136 287.966 49.5278 288.612 49.5278C289.247 49.5278 289.766 49.0136 289.766 48.3721C289.766 47.7306 289.247 47.211 288.612 47.211Z" fill="#FFDC0D"/>
<path d="M281.103 50.1322C280.309 50.1322 279.668 50.779 279.668 51.5742C279.668 52.3748 280.309 53.011 281.103 53.011C281.897 53.011 282.543 52.3748 282.543 51.5742C282.543 50.779 281.897 50.1322 281.103 50.1322Z" fill="#CC8B96"/>
<path d="M281.103 50.4131C280.462 50.4131 279.949 50.9327 279.949 51.5742C279.949 52.2104 280.462 52.73 281.103 52.73C281.744 52.73 282.263 52.2104 282.263 51.5742C282.263 50.9327 281.744 50.4131 281.103 50.4131Z" fill="#FFDC0D"/>
<path d="M278.816 152.538C278.021 152.538 277.375 153.18 277.375 153.98C277.375 154.776 278.021 155.422 278.816 155.422C279.61 155.422 280.251 154.776 280.251 153.98C280.251 153.18 279.61 152.538 278.816 152.538Z" fill="#CC8B96"/>
<path d="M278.815 152.825C278.18 152.825 277.656 153.339 277.656 153.98C277.656 154.622 278.18 155.136 278.815 155.136C279.456 155.136 279.97 154.622 279.97 153.98C279.97 153.339 279.456 152.825 278.815 152.825Z" fill="#FFDC0D"/>
<path d="M284.736 152.538C283.941 152.538 283.295 153.18 283.295 153.98C283.295 154.776 283.941 155.422 284.736 155.422C285.53 155.422 286.171 154.776 286.171 153.98C286.171 153.18 285.53 152.538 284.736 152.538Z" fill="#CC8B96"/>
<path d="M284.735 152.825C284.095 152.825 283.576 153.339 283.576 153.98C283.576 154.622 284.095 155.136 284.735 155.136C285.376 155.136 285.89 154.622 285.89 153.98C285.89 153.339 285.376 152.825 284.735 152.825Z" fill="#FFDC0D"/>
<path d="M290.65 152.538C289.856 152.538 289.215 153.18 289.215 153.98C289.215 154.776 289.856 155.422 290.65 155.422C291.45 155.422 292.091 154.776 292.091 153.98C292.091 153.18 291.45 152.538 290.65 152.538Z" fill="#CC8B96"/>
<path d="M290.65 152.825C290.015 152.825 289.496 153.339 289.496 153.98C289.496 154.622 290.015 155.136 290.65 155.136C291.296 155.136 291.81 154.622 291.81 153.98C291.81 153.339 291.296 152.825 290.65 152.825Z" fill="#FFDC0D"/>
<path d="M296.57 152.538C295.776 152.538 295.13 153.18 295.13 153.98C295.13 154.776 295.776 155.422 296.57 155.422C297.364 155.422 298.01 154.776 298.01 153.98C298.01 153.18 297.364 152.538 296.57 152.538Z" fill="#CC8B96"/>
<path d="M296.57 152.825C295.935 152.825 295.416 153.339 295.416 153.98C295.416 154.622 295.935 155.136 296.57 155.136C297.211 155.136 297.725 154.622 297.725 153.98C297.725 153.339 297.211 152.825 296.57 152.825Z" fill="#FFDC0D"/>
<path d="M302.49 152.538C301.696 152.538 301.05 153.18 301.05 153.98C301.05 154.776 301.696 155.422 302.49 155.422C303.284 155.422 303.925 154.776 303.925 153.98C303.925 153.18 303.284 152.538 302.49 152.538Z" fill="#CC8B96"/>
<path d="M302.49 152.825C301.85 152.825 301.336 153.339 301.336 153.98C301.336 154.622 301.85 155.136 302.49 155.136C303.131 155.136 303.645 154.622 303.645 153.98C303.645 153.339 303.131 152.825 302.49 152.825Z" fill="#FFDC0D"/>
<path d="M308.405 152.538C307.616 152.538 306.964 153.18 306.964 153.98C306.964 154.776 307.616 155.422 308.405 155.422C309.204 155.422 309.845 154.776 309.845 153.98C309.845 153.18 309.204 152.538 308.405 152.538Z" fill="#CC8B96"/>
<path d="M308.405 152.825C307.769 152.825 307.25 153.339 307.25 153.98C307.25 154.622 307.769 155.136 308.405 155.136C309.046 155.136 309.559 154.622 309.559 153.98C309.559 153.339 309.046 152.825 308.405 152.825Z" fill="#FFDC0D"/>
<path d="M314.325 152.538C313.53 152.538 312.884 153.18 312.884 153.98C312.884 154.776 313.53 155.422 314.325 155.422C315.119 155.422 315.765 154.776 315.765 153.98C315.765 153.18 315.119 152.538 314.325 152.538Z" fill="#CC8B96"/>
<path d="M314.325 152.825C313.689 152.825 313.165 153.339 313.165 153.98C313.165 154.622 313.689 155.136 314.325 155.136C314.965 155.136 315.479 154.622 315.479 153.98C315.479 153.339 314.965 152.825 314.325 152.825Z" fill="#FFDC0D"/>
<path d="M320.245 152.538C319.451 152.538 318.805 153.18 318.805 153.98C318.805 154.776 319.451 155.422 320.245 155.422C321.039 155.422 321.68 154.776 321.68 153.98C321.68 153.18 321.039 152.538 320.245 152.538Z" fill="#CC8B96"/>
<path d="M320.245 152.825C319.604 152.825 319.085 153.339 319.085 153.98C319.085 154.622 319.604 155.136 320.245 155.136C320.885 155.136 321.399 154.622 321.399 153.98C321.399 153.339 320.885 152.825 320.245 152.825Z" fill="#FFDC0D"/>
<path d="M326.16 152.538C325.365 152.538 324.725 153.18 324.725 153.98C324.725 154.776 325.365 155.422 326.16 155.422C326.959 155.422 327.6 154.776 327.6 153.98C327.6 153.18 326.959 152.538 326.16 152.538Z" fill="#CC8B96"/>
<path d="M326.159 152.825C325.524 152.825 325.005 153.339 325.005 153.98C325.005 154.622 325.524 155.136 326.159 155.136C326.805 155.136 327.319 154.622 327.319 153.98C327.319 153.339 326.805 152.825 326.159 152.825Z" fill="#FFDC0D"/>
<path d="M332.079 152.538C331.285 152.538 330.639 153.18 330.639 153.98C330.639 154.776 331.285 155.422 332.079 155.422C332.874 155.422 333.52 154.776 333.52 153.98C333.52 153.18 332.874 152.538 332.079 152.538Z" fill="#CC8B96"/>
<path d="M332.079 152.825C331.444 152.825 330.925 153.339 330.925 153.98C330.925 154.622 331.444 155.136 332.079 155.136C332.72 155.136 333.233 154.622 333.233 153.98C333.233 153.339 332.72 152.825 332.079 152.825Z" fill="#FFDC0D"/>
<path d="M305.529 172.679C301.833 172.679 298.836 175.574 298.836 177.748C298.836 179.916 301.833 202.034 305.529 202.034C309.225 202.034 312.217 179.916 312.217 177.748C312.217 175.574 309.225 172.679 305.529 172.679Z" fill="#F79E0E"/>
</g>
<defs>
<clipPath id="clip0_53_199">
<rect width="610" height="541" fill="white"/>
</clipPath>
</defs>
</svg>
